# xmcd
#
# Track frame offsets:
#       150
#       22201
#       42590
#       67479
#       90515
#       122946
#       141077
#       181671
#       211274
#       232248
#       252333
#       274647
#       296732
#       323350
#
# Disc length: 4761 seconds
#
# Revision: 1
# Processed by: cddbd v1.5.2PL0 Copyright (c) Steve Scherf et al.
# Submitted via: FreeDbEdit v0.1
#
DISCID=da12970e
DTITLE=Manny Albam - Jazz Greats of Our Time [CD1]
DYEAR=1958
DGENRE=Jazz
TTITLE0=My Sweetie Went Away
TTITLE1=See Here Miss Bromley
TTITLE2=Poor Dr Millmoss
TTITLE3=All Too Soon
TTITLE4=Minor Matters
TTITLE5=Latines Fracture
TTITLE6=Blues From Neither Coast
TTITLE7=Thurned Burt
TTITLE8=Afterthoughts
TTITLE9=How Long Has This Been Going On
TTITLE10=Jive at Five
TTITLE11=Its De Lovely
TTITLE12=Sweets Bread
TTITLE13=Intervowen
EXTD=YEAR: 1958
EXTT0=
EXTT1=
EXTT2=
EXTT3=
EXTT4=
EXTT5=
EXTT6=
EXTT7=
EXTT8=
EXTT9=
EXTT10=
EXTT11=
EXTT12=
EXTT13=
PLAYORDER=
